<svg viewBox="0 0 90 90" xmlns="http://www.w3.org/2000/svg"><g fill="none"><path d="M0 43.2C0 22.835 0 12.653 6.326 6.326 12.653 0 22.836 0 43.2 0h3.6c20.365 0 30.547 0 36.874 6.326C90 12.653 90 22.836 90 43.2v3.6c0 20.365 0 30.547-6.326 36.874C77.347 90 67.164 90 46.8 90h-3.6c-20.365 0-30.547 0-36.874-6.326C0 77.347 0 67.164 0 46.8v-3.6Z" fill="#07F"/><path d="M47.888 64.838c-20.513 0-32.213-14.063-32.7-37.463h10.275c.337 17.175 7.912 24.45 13.912 25.95v-25.95h9.675v14.813C54.975 41.55 61.2 34.8 63.3 27.375h9.675c-1.613 9.15-8.363 15.9-13.163 18.675 4.8 2.25 12.488 8.138 15.413 18.788h-10.65C62.287 57.713 56.588 52.2 49.05 51.45v13.388h-1.162Z" fill="#FFF"/></g></svg>